<svg xmlns="http://www.w3.org/2000/svg" style="display:none" aria-hidden="true">

  <symbol id="icon-github" viewBox="0 0 24 24">
    <path d="M12 2C6.477 2 2 6.484 2 12.021c0 4.428 2.865 8.185 6.839 9.504.5.092.682-.217.682-.483 0-.237-.009-.868-.013-1.703-2.782.605-3.369-1.343-3.369-1.343-.454-1.158-1.11-1.466-1.11-1.466-.908-.62.069-.608.069-.608 1.003.07 1.531 1.032 1.531 1.032.892 1.53 2.341 1.088 2.91.832.092-.647.35-1.088.636-1.338-2.22-.253-4.555-1.113-4.555-4.951 0-1.093.39-1.988 1.031-2.688-.103-.253-.446-1.272.098-2.65 0 0 .84-.27 2.75 1.026A9.564 9.564 0 0 1 12 6.844a9.59 9.59 0 0 1 2.504.337c1.909-1.296 2.747-1.026 2.747-1.026.546 1.379.202 2.398.1 2.651.64.7 1.028 1.595 1.028 2.688 0 3.848-2.339 4.695-4.566 4.943.359.309.678.92.678 1.855 0 1.338-.012 2.419-.012 2.747 0 .268.18.58.688.482A10.019 10.019 0 0 0 22 12.021C22 6.484 17.522 2 12 2z"/>
  </symbol>

  <symbol id="icon-phone" viewBox="0 0 24 24">
    <path fill="none" stroke="currentColor" stroke-width="2" stroke-linecap="round" stroke-linejoin="round"
      d="M22 16.92v3a2 2 0 0 1-2.18 2 19.79 19.79 0 0 1-8.63-3.07A19.5 19.5 0 0 1 4.69 9.83 19.79 19.79 0 0 1 1.61 1.2 2 2 0 0 1 3.59 1h3a2 2 0 0 1 2 1.72c.127.96.361 1.903.7 2.81a2 2 0 0 1-.45 2.11L7.91 8.56a16 16 0 0 0 6.29 6.29l1.63-1.63a2 2 0 0 1 2.11-.45c.907.339 1.85.573 2.81.7A2 2 0 0 1 22 16.92z"/>
  </symbol>

  <symbol id="icon-download" viewBox="0 0 24 24">
    <path fill="none" stroke="currentColor" stroke-width="2" stroke-linecap="round" stroke-linejoin="round" d="M21 15v4a2 2 0 0 1-2 2H5a2 2 0 0 1-2-2v-4"/>
    <polyline fill="none" stroke="currentColor" stroke-width="2" stroke-linecap="round" stroke-linejoin="round" points="7 10 12 15 17 10"/>
    <line fill="none" stroke="currentColor" stroke-width="2" stroke-linecap="round" stroke-linejoin="round" x1="12" y1="15" x2="12" y2="3"/>
  </symbol>

  <symbol id="icon-linkedin" viewBox="0 0 24 24">
    <path d="M19 3A2 2 0 0 1 21 5V19A2 2 0 0 1 19 21H5A2 2 0 0 1 3 19V5A2 2 0 0 1 5 3H19M18.5 18.5V13.2A3.26 3.26 0 0 0 15.24 9.94C14.39 9.94 13.4 10.46 12.92 11.24V10.13H10.13V18.5H12.92V13.57A1.46 1.46 0 0 1 14.38 12.11A1.46 1.46 0 0 1 15.84 13.57V18.5H18.5M6.88 8.56A1.68 1.68 0 0 0 8.56 6.88C8.56 5.95 7.81 5.19 6.88 5.19A1.69 1.69 0 0 0 5.19 6.88C5.19 7.81 5.95 8.56 6.88 8.56M8.27 18.5V10.13H5.5V18.5H8.27Z"/>
  </symbol>

  <symbol id="icon-chevron-down" viewBox="0 0 24 24">
    <polyline fill="none" stroke="currentColor" stroke-width="2" stroke-linecap="round" stroke-linejoin="round" points="6 9 12 15 18 9"/>
  </symbol>

  <symbol id="icon-user" viewBox="0 0 24 24">
    <path fill="none" stroke="currentColor" stroke-width="1" stroke-linecap="round" stroke-linejoin="round" d="M20 21v-2a4 4 0 0 0-4-4H8a4 4 0 0 0-4 4v2"/>
    <circle fill="none" stroke="currentColor" stroke-width="1" stroke-linecap="round" stroke-linejoin="round" cx="12" cy="7" r="4"/>
  </symbol>

  <symbol id="icon-map-pin" viewBox="0 0 24 24">
    <path fill="none" stroke="currentColor" stroke-width="2" stroke-linecap="round" stroke-linejoin="round" d="M21 10c0 7-9 13-9 13s-9-6-9-13a9 9 0 0 1 18 0z"/>
    <circle fill="none" stroke="currentColor" stroke-width="2" stroke-linecap="round" stroke-linejoin="round" cx="12" cy="10" r="3"/>
  </symbol>

  <symbol id="icon-globe" viewBox="0 0 24 24">
    <circle fill="none" stroke="currentColor" stroke-width="2" stroke-linecap="round" stroke-linejoin="round" cx="12" cy="12" r="10"/>
    <line fill="none" stroke="currentColor" stroke-width="2" stroke-linecap="round" stroke-linejoin="round" x1="2" y1="12" x2="22" y2="12"/>
    <path fill="none" stroke="currentColor" stroke-width="2" stroke-linecap="round" stroke-linejoin="round" d="M12 2a15.3 15.3 0 0 1 4 10 15.3 15.3 0 0 1-4 10 15.3 15.3 0 0 1-4-10 15.3 15.3 0 0 1 4-10z"/>
  </symbol>

  <symbol id="icon-external-link" viewBox="0 0 24 24">
    <path fill="none" stroke="currentColor" stroke-width="2" stroke-linecap="round" stroke-linejoin="round" d="M18 13v6a2 2 0 0 1-2 2H5a2 2 0 0 1-2-2V8a2 2 0 0 1 2-2h6"/>
    <polyline fill="none" stroke="currentColor" stroke-width="2" stroke-linecap="round" stroke-linejoin="round" points="15 3 21 3 21 9"/>
    <line fill="none" stroke="currentColor" stroke-width="2" stroke-linecap="round" stroke-linejoin="round" x1="10" y1="14" x2="21" y2="3"/>
  </symbol>

  <symbol id="icon-mobile" viewBox="0 0 24 24">
    <rect fill="none" stroke="currentColor" stroke-width="2" stroke-linecap="round" stroke-linejoin="round" x="5" y="2" width="14" height="20" rx="2" ry="2"/>
    <line fill="none" stroke="currentColor" stroke-width="2" stroke-linecap="round" stroke-linejoin="round" x1="12" y1="18" x2="12.01" y2="18"/>
  </symbol>

  <symbol id="icon-email" viewBox="0 0 24 24">
    <path fill="none" stroke="currentColor" stroke-width="2" stroke-linecap="round" stroke-linejoin="round" d="M4 4h16c1.1 0 2 .9 2 2v12c0 1.1-.9 2-2 2H4c-1.1 0-2-.9-2-2V6c0-1.1.9-2 2-2z"/>
    <polyline fill="none" stroke="currentColor" stroke-width="2" stroke-linecap="round" stroke-linejoin="round" points="22,6 12,13 2,6"/>
  </symbol>

  <symbol id="icon-arrow-left" viewBox="0 0 24 24">
    <line fill="none" stroke="currentColor" stroke-width="2" stroke-linecap="round" stroke-linejoin="round" x1="19" y1="12" x2="5" y2="12"/>
    <polyline fill="none" stroke="currentColor" stroke-width="2" stroke-linecap="round" stroke-linejoin="round" points="12 19 5 12 12 5"/>
  </symbol>

  <symbol id="icon-chevron-left" viewBox="0 0 24 24">
    <polyline fill="none" stroke="currentColor" stroke-width="2.5" stroke-linecap="round" stroke-linejoin="round" points="15 18 9 12 15 6"/>
  </symbol>

  <symbol id="icon-chevron-right" viewBox="0 0 24 24">
    <polyline fill="none" stroke="currentColor" stroke-width="2.5" stroke-linecap="round" stroke-linejoin="round" points="9 18 15 12 9 6"/>
  </symbol>

  <symbol id="icon-image" viewBox="0 0 24 24">
    <rect fill="none" stroke="currentColor" stroke-width="1" stroke-linecap="round" stroke-linejoin="round" x="3" y="3" width="18" height="18" rx="2"/>
    <circle fill="none" stroke="currentColor" stroke-width="1" stroke-linecap="round" stroke-linejoin="round" cx="8.5" cy="8.5" r="1.5"/>
    <polyline fill="none" stroke="currentColor" stroke-width="1" stroke-linecap="round" stroke-linejoin="round" points="21 15 16 10 5 21"/>
  </symbol>

</svg>
